<?xml version="1.0" encoding="utf-8"?>
<!-- Generator: Adobe Illustrator 18.1.1, SVG Export Plug-In . SVG Version: 6.00 Build 0)  -->
<!DOCTYPE svg PUBLIC "-//W3C//DTD SVG 1.1//EN" "http://www.w3.org/Graphics/SVG/1.1/DTD/svg11.dtd">
<svg version="1.1" xmlns="http://www.w3.org/2000/svg" xmlns:xlink="http://www.w3.org/1999/xlink" x="0px" y="0px"
	 width="1956.6px" height="658.5px" viewBox="0 0 1956.6 658.5" enable-background="new 0 0 1956.6 658.5" xml:space="preserve">
<g id="bg">
</g>
<g id="guys">
	<path fill="#FFFFFF" d="M666,172.4H52.5c-29,0-52.5,23.5-52.5,52.5v381c0,29,23.5,52.5,52.5,52.5h70.3v-32.1
		c1.8-6.9,4.6-13.5,8.2-19.7c3-5.4,7.2-10.7,12.5-15.8c5.3-5.2,12.1-9,20.4-11.5c4.3-1.2,9.8-2.9,16.7-5.2
		c6.9-2.3,14.6-4.9,23.1-7.8c8.5-2.9,17.5-6.1,26.9-9.5c9.4-3.4,18.8-6.7,28.1-10.1c9.3-3.4,18.1-6.6,26.5-9.6
		c8.3-3.1,15.6-5.7,21.9-8.1V500c-0.4-1.3-1.1-3.4-2-6.2c-0.9-2.8-1.9-5.6-2.9-8.5c-1.2-3.3-2.6-7-4.3-10.9
		c-5.9-9.1-10.5-19.4-14-31s-5.2-23.8-5.2-36.8c0-17.1,2.2-31.5,6.5-43.3c4.4-11.8,10.3-21.4,17.8-28.9c7.5-7.4,16.3-12.8,26.3-16.2
		c10-3.4,20.8-5.1,32.4-5.1c11.4,0,22,1.6,32.1,4.9c10,3.3,18.8,8.6,26.5,15.9c7.6,7.4,13.6,17,17.9,28.9
		c4.4,11.9,6.5,26.5,6.5,43.7c0,12.7-1.7,24.7-5,36.1c-3.3,11.4-8,21.6-13.8,30.8c-1.6,4.2-3.2,8.2-4.6,11.8
		c-1.2,3.2-2.3,6.3-3.3,9.2c-1,3-1.5,5.1-1.5,6.5v29.6c6.5,2.4,13.9,5.1,22.2,8.1c8.3,3,16.9,6.1,25.7,9.4
		c8.8,3.2,17.8,6.4,26.8,9.6c9,3.2,17.6,6.2,25.7,9c8.1,2.8,15.4,5.2,21.9,7.4c6.5,2.2,11.8,3.9,15.8,5c8.5,2.5,15.4,6.4,20.7,11.5
		c5.3,5.1,9.4,10.4,12.5,15.8c3.6,6.2,6.3,12.8,7.9,19.7v32.1H666c29,0,52.5-23.5,52.5-52.5v-381C718.5,195.9,695,172.4,666,172.4z"
		/>
	<path fill="#FFFFFF" d="M1462.9,172.4H849.5c-29,0-52.5,23.5-52.5,52.5v381c0,29,23.5,52.5,52.5,52.5h70.3v-32.1
		c1.8-6.9,4.6-13.5,8.2-19.7c3-5.4,7.2-10.7,12.5-15.8c5.3-5.2,12.1-9,20.4-11.5c4.3-1.2,9.8-2.9,16.7-5.2
		c6.9-2.3,14.6-4.9,23.1-7.8c8.5-2.9,17.5-6.1,26.9-9.5c9.4-3.4,18.8-6.7,28.1-10.1c9.3-3.4,18.1-6.6,26.5-9.6
		c8.3-3.1,15.6-5.7,21.9-8.1V500c-0.4-1.3-1.1-3.4-2-6.2c-0.9-2.8-1.9-5.6-2.9-8.5c-1.2-3.3-2.6-7-4.3-10.9
		c-5.9-9.1-10.5-19.4-14-31s-5.2-23.8-5.2-36.8c0-17.1,2.2-31.5,6.5-43.3c4.4-11.8,10.3-21.4,17.8-28.9c7.5-7.4,16.3-12.8,26.3-16.2
		c10-3.4,20.8-5.1,32.4-5.1c11.4,0,22,1.6,32.1,4.9c10,3.3,18.8,8.6,26.5,15.9c7.6,7.4,13.6,17,17.9,28.9
		c4.4,11.9,6.5,26.5,6.5,43.7c0,12.7-1.7,24.7-5,36.1c-3.3,11.4-8,21.6-13.8,30.8c-1.6,4.2-3.2,8.2-4.6,11.8
		c-1.2,3.2-2.3,6.3-3.3,9.2c-1,3-1.5,5.1-1.5,6.5v29.6c6.5,2.4,13.9,5.1,22.2,8.1c8.3,3,16.9,6.1,25.7,9.4
		c8.8,3.2,17.8,6.4,26.8,9.6c9,3.2,17.6,6.2,25.7,9c8.1,2.8,15.4,5.2,21.9,7.4c6.5,2.2,11.8,3.9,15.8,5c8.5,2.5,15.4,6.4,20.7,11.5
		c5.3,5.1,9.4,10.4,12.5,15.8c3.6,6.2,6.3,12.8,7.9,19.7v32.1h70.3c29,0,52.5-23.5,52.5-52.5v-381
		C1515.4,195.9,1491.9,172.4,1462.9,172.4z"/>
	<g>
		<path fill="#FFFFFF" d="M1921.5,484.4l-95-30.6V333.4c0-19.4-17.7-37-37-37c-19,0-37,18-37,37.1l0.6,208.5
			c-35-51.9-49.3-57.6-71.7-57.6c-8.1,0-14.5,3.7-18.1,10.3c-6.2,11.4-2.7,27.9,3.7,37.7l87.5,126.3h170.3l19.9-117.4
			C1949.7,519,1944.7,491.8,1921.5,484.4z"/>
		<path fill="#9A73AE" d="M1703.8,448.4c6.4-6.4,6.4-16.8,0-23.3c-24.3-24.3-37.7-56.7-37.7-91.1c0-34.4,13.4-66.8,37.7-91.1
			c24.3-24.3,56.7-37.7,91.1-37.7c34.4,0,66.8,13.4,91.1,37.7c24.3,24.3,37.7,56.7,37.7,91.1c0,34.4-13.4,66.8-37.7,91.1
			c-6.4,6.4-6.4,16.9,0,23.3c3.2,3.2,7.4,4.8,11.6,4.8c4.2,0,8.4-1.6,11.6-4.8c30.6-30.6,47.4-71.2,47.4-114.4
			c0-43.2-16.8-83.8-47.4-114.4c-30.6-30.6-71.2-47.4-114.4-47.4h0c-43.2,0-83.8,16.8-114.4,47.4c-30.6,30.6-47.4,71.2-47.4,114.4
			c0,43.2,16.8,83.8,47.4,114.4C1686.9,454.9,1697.3,454.9,1703.8,448.4z"/>
	</g>
	<path id="speech_x5F_bubble_x5F_text_1_" fill="#9A73AE" d="M603.6,128.9v33.4c0,71.2,57.7,127.7,128.9,127.7h29.9l158.9,89.6
		L852.2,290h9.2c71.2,0,128.9-56.5,128.9-127.7v-33.4C990.3,57.7,932.6,0,861.4,0L730.2,0C659,0,603.6,57.7,603.6,128.9z"/>
	<g>
		<path fill="#FFFFFF" d="M738.5,170.6h-30.5c-4.8,0-8.6-3.9-8.6-8.6v-54.8c0-4.8,3.9-8.6,8.6-8.6h29.3c13.7,0,20.7,8.7,20.7,18.4
			c0,9.1-5.6,15.1-12.4,16.5c7.7,1.2,13.8,8.6,13.8,17.7C759.5,162,752.3,170.6,738.5,170.6z M734,111.8h-19.2v15.7H734
			c5.2,0,8.4-3.2,8.4-7.8S739.2,111.8,734,111.8z M734.5,140.6h-19.8v16.7h19.8c5.8,0,9.3-3.1,9.3-8.3
			C743.8,144.5,740.6,140.6,734.5,140.6z"/>
		<path fill="#FFFFFF" d="M816.5,127l-21.1,52.2c-3.7,9.1-10.3,12.6-17.9,12.6c-4.8,0-8.4-2.4-8.4-6.2c0-3.2,2.6-6,6.5-6
			c0.5,0,1.2,0,1.7-0.1c2.3-0.4,4.2-1.5,5.2-3.7l1.9-4.4l-17.8-44.5c-0.3-0.8-0.4-1.5-0.4-2.3c0-3.3,2.7-6.8,6.9-6.8
			c2.7,0,5.3,1.7,6.4,4.5l12.1,32.4l12.1-32.4c1-2.7,3.7-4.5,6.6-4.5c4.1,0,6.7,3.3,6.7,6.7C816.9,125.4,816.8,126.3,816.5,127z"/>
		<path fill="#FFFFFF" d="M869.3,148.9h-32.2c0.9,6.6,6.2,12.1,15,12.1c2.9,0,6.9-0.9,10.2-2.6c0.9-0.4,1.8-0.6,2.7-0.6
			c2.9,0,5.8,2.3,5.8,5.5c0,6.2-13.3,8.6-20.2,8.6c-15.9,0-27.9-10.7-27.9-27.4c0-15.1,11.1-27.3,27-27.3c11.8,0,20.7,6.8,24.4,17.6
			c0.8,2.4,1.5,5.3,1.5,7.9C875.7,146,872.9,148.9,869.3,148.9z M849.8,128.1c-8.5,0-12.2,6.4-12.9,11.6h25.7
			C862.3,134.7,858.8,128.1,849.8,128.1z"/>
		<path fill="#FFFFFF" d="M892.9,171.7c-4.8,0-8.6-4-8.6-8.6c0-4.8,3.9-8.7,8.6-8.7s8.7,4,8.7,8.7
			C901.6,167.7,897.6,171.7,892.9,171.7z M899.1,141.9c-0.1,3.3-2.8,5.9-6.4,5.9c-3.3,0-6-2.6-6.2-5.9c-0.5-12-1.7-33.9-1.7-36.1
			c0-4.4,3.5-7.9,8.1-7.9c4.4,0,7.8,3.5,7.8,7.9C900.8,108,899.7,129.9,899.1,141.9z"/>
	</g>
</g>
</svg>
