<?xml version="1.0" encoding="utf-8"?>
<!-- Generator: Adobe Illustrator 18.1.1, SVG Export Plug-In . SVG Version: 6.00 Build 0)  -->
<!DOCTYPE svg PUBLIC "-//W3C//DTD SVG 1.1//EN" "http://www.w3.org/Graphics/SVG/1.1/DTD/svg11.dtd">
<svg version="1.1" xmlns="http://www.w3.org/2000/svg" xmlns:xlink="http://www.w3.org/1999/xlink" x="0px" y="0px"
	 width="1951.3px" height="636px" viewBox="0 0 1951.3 636" enable-background="new 0 0 1951.3 636" xml:space="preserve">
<g id="bg">
</g>
<g id="guys">
	<g>
		<path fill="#FFFFFF" d="M288.4,462l-95-30.6V310.9c0-19.4-17.7-37-37-37c-19,0-37,18-37,37.1l0.6,208.5
			c-35-51.9-49.3-57.6-71.7-57.6c-8.1,0-14.5,3.7-18.1,10.3c-6.2,11.4-2.7,27.9,3.7,37.7L121.3,636h170.3l19.9-117.4
			C316.6,496.6,311.6,469.4,288.4,462z"/>
		<path fill="#9A73AE" d="M70.7,426c6.4-6.4,6.4-16.8,0-23.3c-24.3-24.3-37.7-56.7-37.7-91.1c0-34.4,13.4-66.8,37.7-91.1
			c24.3-24.3,56.7-37.7,91.1-37.7c34.4,0,66.8,13.4,91.1,37.7c24.3,24.3,37.7,56.7,37.7,91.1c0,34.4-13.4,66.8-37.7,91.1
			c-6.4,6.4-6.4,16.9,0,23.3c3.2,3.2,7.4,4.8,11.6,4.8c4.2,0,8.4-1.6,11.6-4.8c30.6-30.6,47.4-71.2,47.4-114.4
			c0-43.2-16.8-83.8-47.4-114.4c-30.6-30.6-71.2-47.4-114.4-47.4h0c-43.2,0-83.8,16.8-114.4,47.4C16.8,227.7,0,268.4,0,311.6
			c0,43.2,16.8,83.8,47.4,114.4C53.8,432.4,64.2,432.4,70.7,426z"/>
	</g>
	<g>
		<rect x="981.5" y="40" fill="#FFFFFF" width="279" height="199"/>
		<path fill="#FFFFFF" d="M1101.9,149.9H488.4c-29,0-52.5,23.5-52.5,52.5v381c0,29,23.5,52.5,52.5,52.5h70.3v-32.1
			c1.8-6.9,4.6-13.5,8.2-19.7c3-5.4,7.2-10.7,12.5-15.8c5.3-5.2,12.1-9,20.4-11.5c4.3-1.2,9.8-2.9,16.7-5.2
			c6.9-2.3,14.6-4.9,23.1-7.8c8.5-2.9,17.5-6.1,26.9-9.5c9.4-3.4,18.8-6.7,28.1-10.1c9.3-3.4,18.1-6.6,26.5-9.6
			c8.3-3.1,15.6-5.7,21.9-8.1v-28.9c-0.4-1.3-1.1-3.4-2-6.2c-0.9-2.8-1.9-5.6-2.9-8.5c-1.2-3.3-2.6-7-4.3-10.9
			c-5.9-9.1-10.5-19.4-14-31s-5.2-23.8-5.2-36.8c0-17.1,2.2-31.5,6.5-43.3c4.4-11.8,10.3-21.4,17.8-28.9
			c7.5-7.4,16.3-12.8,26.3-16.2c10-3.4,20.8-5.1,32.4-5.1c11.4,0,22,1.6,32.1,4.9c10,3.3,18.8,8.6,26.5,15.9
			c7.6,7.4,13.6,17,17.9,28.9c4.4,11.9,6.5,26.5,6.5,43.7c0,12.7-1.7,24.7-5,36.1c-3.3,11.4-8,21.6-13.8,30.8
			c-1.6,4.2-3.2,8.2-4.6,11.8c-1.2,3.2-2.3,6.3-3.3,9.2c-1,3-1.5,5.1-1.5,6.5v29.6c6.5,2.4,13.9,5.1,22.2,8.1
			c8.3,3,16.9,6.1,25.7,9.4c8.8,3.2,17.8,6.4,26.8,9.6c9,3.2,17.6,6.2,25.7,9c8.1,2.8,15.4,5.2,21.9,7.4c6.5,2.2,11.8,3.9,15.8,5
			c8.5,2.5,15.4,6.4,20.7,11.5c5.3,5.1,9.4,10.4,12.5,15.8c3.6,6.2,6.3,12.8,7.9,19.7v32.1h70.3c29,0,52.5-23.5,52.5-52.5v-381
			C1154.4,173.4,1130.9,149.9,1101.9,149.9z"/>
		<path fill="#FFFFFF" d="M1898.9,149.9h-613.5c-29,0-52.5,23.5-52.5,52.5v381c0,29,23.5,52.5,52.5,52.5h70.3v-32.1
			c1.8-6.9,4.6-13.5,8.2-19.7c3-5.4,7.2-10.7,12.5-15.8c5.3-5.2,12.1-9,20.4-11.5c4.3-1.2,9.8-2.9,16.7-5.2
			c6.9-2.3,14.6-4.9,23.1-7.8c8.5-2.9,17.5-6.1,26.9-9.5c9.4-3.4,18.8-6.7,28.1-10.1c9.3-3.4,18.1-6.6,26.5-9.6
			c8.3-3.1,15.6-5.7,21.9-8.1v-28.9c-0.4-1.3-1.1-3.4-2-6.2c-0.9-2.8-1.9-5.6-2.9-8.5c-1.2-3.3-2.6-7-4.3-10.9
			c-5.9-9.1-10.5-19.4-14-31s-5.2-23.8-5.2-36.8c0-17.1,2.2-31.5,6.5-43.3c4.4-11.8,10.3-21.4,17.8-28.9
			c7.5-7.4,16.3-12.8,26.3-16.2c10-3.4,20.8-5.1,32.4-5.1c11.4,0,22,1.6,32.1,4.9c10,3.3,18.8,8.6,26.5,15.9
			c7.6,7.4,13.6,17,17.9,28.9c4.4,11.9,6.5,26.5,6.5,43.7c0,12.7-1.7,24.7-5,36.1c-3.3,11.4-8,21.6-13.8,30.8
			c-1.6,4.2-3.2,8.2-4.6,11.8c-1.2,3.2-2.3,6.3-3.3,9.2c-1,3-1.5,5.1-1.5,6.5v29.6c6.5,2.4,13.9,5.1,22.2,8.1
			c8.3,3,16.9,6.1,25.7,9.4c8.8,3.2,17.8,6.4,26.8,9.6c9,3.2,17.6,6.2,25.7,9c8.1,2.8,15.4,5.2,21.9,7.4c6.5,2.2,11.8,3.9,15.8,5
			c8.5,2.5,15.4,6.4,20.7,11.5c5.3,5.1,9.4,10.4,12.5,15.8c3.6,6.2,6.3,12.8,7.9,19.7v32.1h70.3c29,0,52.5-23.5,52.5-52.5v-381
			C1951.3,173.4,1927.8,149.9,1898.9,149.9z"/>
		<path id="speech_x5F_bubble_x5F_text" fill="#9A73AE" d="M1177.9,0h-131.2c-71.2,0-128.9,57.7-128.9,128.9v33.4
			c0,71.2,57.7,127.7,128.9,127.7h9.2l-69.1,89.6l158.9-89.6h29.9c71.2,0,128.9-56.5,128.9-127.7v-33.4
			C1304.5,57.7,1249.1,0,1177.9,0z"/>
		<g>
			<path fill="#FFFFFF" d="M1110.9,176.6c-4.2,0-7.7-3.5-7.7-7.7v-23.2h-34v23.3c0,4.1-3.5,7.6-7.8,7.6c-4.1,0-7.6-3.5-7.6-7.6
				v-58.2c0-4.1,3.5-7.6,7.8-7.6c4.1,0,7.6,3.5,7.6,7.6v21.4h34v-21.4c0-4.1,3.5-7.6,7.9-7.6c4.1,0,7.6,3.5,7.6,7.6V169
				C1118.6,173.2,1115.2,176.6,1110.9,176.6z"/>
			<path fill="#FFFFFF" d="M1147.5,110c0,4.5-3.7,8.2-8.2,8.2c-4.4,0-8.2-3.7-8.2-8.2c0-4.5,3.8-8.1,8.2-8.1
				C1143.8,101.9,1147.5,105.5,1147.5,110z M1139.3,176.6c-3.8,0-6.8-3-6.8-6.8v-40c0-3.7,3-6.7,7-6.7c3.7,0,6.7,3,6.7,6.7v40
				C1146.2,173.6,1143.2,176.6,1139.3,176.6z"/>
			<path fill="#FFFFFF" d="M1166.8,177.1c-4.8,0-8.6-4-8.6-8.6c0-4.8,3.9-8.7,8.6-8.7s8.7,4,8.7,8.7
				C1175.6,173.1,1171.6,177.1,1166.8,177.1z M1173.1,147.3c-0.1,3.3-2.8,5.9-6.4,5.9c-3.3,0-6-2.6-6.2-5.9
				c-0.5-12-1.7-33.9-1.7-36.1c0-4.4,3.5-7.9,8.1-7.9c4.4,0,7.8,3.5,7.8,7.9C1174.7,113.4,1173.6,135.3,1173.1,147.3z"/>
		</g>
	</g>
</g>
</svg>
